<svg width="178" height="40" viewBox="0 0 178 40" fill="none" xmlns="http://www.w3.org/2000/svg">
<path d="M177.543 0H138.182V38.1543H177.543V0Z" fill="#D9E93D"/>
<path d="M136.867 0H97.5063V38.1543H136.867V0Z" fill="#D9E93D"/>
<path d="M174.207 17.1172H142.293V31.8824H174.207V17.1172Z" fill="white"/>
<path d="M167.534 1.27393C165.546 1.27393 163.962 2.84191 163.962 4.73656V13.1318H151.729H143.068C141.08 13.1318 139.496 14.6998 139.496 16.5945V30.3143V33.385V36.8803H143.068H146.236H172.623C174.611 36.8803 176.195 35.3123 176.195 33.4176V13.6545V1.27393H167.534ZM149.673 30.935C146.303 30.935 143.54 28.289 143.54 24.9897C143.54 21.7231 146.27 19.0444 149.673 19.0444C153.077 19.0444 155.807 21.6904 155.807 24.9897C155.807 28.289 153.077 30.935 149.673 30.935ZM166.018 30.935C162.648 30.935 159.884 28.289 159.884 24.9897C159.884 21.7231 162.614 19.0444 166.018 19.0444C169.421 19.0444 172.151 21.6904 172.151 24.9897C172.117 28.289 169.388 30.935 166.018 30.935Z" fill="black"/>
<path d="M131.341 4.31201H114.929V34.1037H131.341V4.31201Z" fill="white"/>
<path d="M131.981 1.27393H111.593H98.8208V9.66919C98.8208 11.5965 100.438 13.1318 102.393 13.1318H111.054V24.9897V30.249V33.385V36.8803H116.412H128.78H131.948C133.936 36.8803 135.52 35.3123 135.52 33.4176V30.347V4.76923C135.553 2.80925 133.936 1.27393 131.981 1.27393ZM123.287 5.22656C126.657 5.22656 129.42 7.87253 129.42 11.1718C129.42 14.4385 126.69 17.1171 123.287 17.1171C119.917 17.1171 117.153 14.4711 117.153 11.1718C117.187 7.87253 119.917 5.22656 123.287 5.22656ZM123.287 32.9276C119.917 32.9276 117.153 30.2817 117.153 26.9824C117.153 23.7157 119.883 21.0371 123.287 21.0371C126.69 21.0371 129.42 23.6831 129.42 26.9824C129.42 30.249 126.69 32.9276 123.287 32.9276Z" fill="black"/>
<g opacity="0.99">
<path opacity="0.99" d="M83.8313 9.60037C82.8196 8.58341 81.3209 7.49381 79.2976 6.33157C78.9604 6.14997 78.7355 6.04102 78.6231 6.04102C78.4358 6.04102 78.2484 6.22262 78.0986 6.62214L76.5998 10.0725L77.2743 10.5084C76.5624 10.8352 76.1877 11.5253 76.1877 12.5423C76.1877 12.9418 76.2626 13.2687 76.4499 13.5592H75.4008V18.753H77.1244C78.0236 18.753 78.9978 18.2445 80.047 17.2639C81.4708 18.2445 82.5199 18.753 83.1569 18.753C84.0186 18.753 84.768 18.1719 85.3675 17.046C85.8546 16.138 86.0794 15.2663 86.0794 14.5036C86.0794 12.7239 85.3301 11.1258 83.8313 9.60037ZM80.3092 13.2687C80.0469 13.4503 79.8221 13.5592 79.5973 13.5592C79.3725 13.5592 79.0728 13.4503 78.7355 13.2324C78.3609 13.0144 78.1735 12.7602 78.1735 12.5423C78.1735 12.288 78.3609 12.0701 78.6981 11.8522C78.9978 11.6706 79.2976 11.598 79.5599 11.598C79.8221 11.598 80.0844 11.7069 80.3467 11.9248C80.609 12.1428 80.7214 12.3607 80.7214 12.6512C80.6839 12.8692 80.534 13.0508 80.3092 13.2687ZM83.4191 15.7021C83.2318 15.7021 82.9321 15.5932 82.4824 15.3389C82.1077 15.121 81.808 14.9394 81.6206 14.7578C82.1077 14.4673 82.37 13.9588 82.37 13.196C82.37 13.1234 82.37 13.0508 82.37 12.9781C83.4191 13.7409 83.9437 14.3946 83.9437 14.9031C83.9437 15.4479 83.7564 15.7021 83.4191 15.7021Z" fill="white"/>
</g>
<g opacity="0.99">
<g opacity="0.99">
<path opacity="0.99" d="M74.8763 13.5592H73.7148C74.2019 12.9055 74.4642 11.9612 74.4642 10.7263C74.4642 9.92724 74.2768 9.20084 73.9021 8.54708C73.4525 7.71172 72.778 7.27588 71.9163 7.27588C70.8671 7.27588 69.9304 7.85699 69.1436 9.01923C68.4691 10.0362 68.0944 11.0168 68.0944 11.9975C68.0944 12.7602 68.2068 13.2687 68.4691 13.5229H67.1577V18.6803H67.6448C68.8063 18.6803 70.0053 18.1356 71.2418 17.0823C71.5041 17.4092 71.9163 17.7724 72.4034 18.0629C73.0778 18.4624 73.6773 18.6803 74.2768 18.6803H74.9138V13.5592H74.8763ZM72.1036 12.5786C71.8039 12.7965 71.5041 12.8692 71.2044 12.8692C70.9795 12.8692 70.6798 12.7602 70.3426 12.506C70.0054 12.2517 69.818 12.0338 69.818 11.8159C69.818 11.5253 70.0053 11.3074 70.38 11.1258C70.6798 10.9805 70.9795 10.9079 71.2793 10.9079C71.5416 10.9079 71.8413 10.9805 72.1411 11.1621C72.4783 11.3437 72.6656 11.598 72.6656 11.8522C72.6282 12.1064 72.4783 12.3607 72.1036 12.5786Z" fill="white"/>
</g>
</g>
<g opacity="0.99">
<path opacity="0.99" d="M66.5956 18.7166H66.146C64.947 18.7166 64.0103 18.0628 63.3733 16.719C61.5748 18.4987 58.9145 19.3704 55.355 19.3704C53.4066 19.3704 51.9453 18.9708 51.0086 18.1718C49.9594 17.3001 49.4349 15.8836 49.4349 13.9224C49.4349 13.1596 49.5473 12.3606 49.7721 11.5253C50.0344 10.5446 50.3716 10.0361 50.7838 10.0361C51.2334 10.0361 51.4957 10.3993 51.5331 11.1621C51.5706 12.1427 51.7954 12.8328 52.2076 13.2323C52.9195 13.9587 54.3058 14.3582 56.4041 14.3582C58.6147 14.3582 60.4507 14.0676 61.8371 13.4502C62.7363 13.0507 63.5232 12.5059 64.1976 11.7795C64.7596 11.162 65.0969 10.8715 65.2467 10.8715C65.6214 10.8715 65.8462 11.1257 65.8462 11.6342C65.8462 11.8158 65.7713 12.0701 65.6589 12.4333C65.5465 12.7965 65.4341 13.0507 65.3217 13.2323C65.4715 13.4139 65.7713 13.5229 66.1835 13.5229H66.6331V18.7166H66.5956Z" fill="white"/>
</g>
<g opacity="0.99">
<path opacity="0.99" d="M43.7772 14.9394C44.2268 15.121 45.201 15.23 46.7372 15.23C46.6998 15.7021 45.7631 16.5012 43.9645 17.6634C42.8405 18.3898 41.8663 18.9709 41.0045 19.4068H47.8238C48.6107 17.845 48.9854 15.6658 48.9854 12.8692C48.9854 11.2348 48.798 9.85461 48.3859 8.65605C47.8238 6.91269 46.8871 6.04102 45.5757 6.04102C44.4142 6.04102 43.5524 6.84006 42.9529 8.43814C42.5407 9.60038 42.3159 10.8352 42.3159 12.1791C42.3159 13.5956 42.803 14.5399 43.7772 14.9394ZM45.276 9.85461C45.5382 9.85461 45.838 9.96357 46.1377 10.1452C46.475 10.3631 46.6623 10.581 46.6623 10.8352C46.6623 10.9805 46.2876 11.0532 45.5008 11.0532C44.6765 11.0532 44.2268 10.9079 44.2268 10.6173C44.2268 10.1089 44.564 9.85461 45.276 9.85461Z" fill="white"/>
</g>
<g opacity="0.99">
<path opacity="0.99" d="M42.1286 14.4669C42.1286 15.2297 41.9038 16.1013 41.4167 17.0093C40.8172 18.1716 40.0678 18.7164 39.206 18.7164C38.569 18.7164 37.5574 18.2079 36.0961 17.2273C35.0469 18.2079 34.0727 18.7164 33.1735 18.7164H31.4499V13.5226H32.4616C32.3117 13.2321 32.1993 12.9052 32.1993 12.5057C32.1993 11.4887 32.574 10.8349 33.2859 10.4717L32.6114 10.0359L34.1102 6.58552C34.2601 6.22232 34.4474 6.00439 34.6348 6.00439C34.7472 6.00439 34.972 6.11335 35.3092 6.29495C37.3326 7.45719 38.8313 8.54679 39.843 9.56375C41.3792 11.1255 42.1286 12.7236 42.1286 14.4669ZM36.6956 12.6146C36.6956 12.3604 36.5832 12.1062 36.3209 11.8882C36.0586 11.6703 35.7963 11.5613 35.534 11.5613C35.2343 11.5613 34.972 11.634 34.6722 11.8156C34.335 11.9972 34.1477 12.2514 34.1477 12.5057C34.1477 12.7236 34.335 12.9415 34.7097 13.1957C35.0469 13.4137 35.3467 13.5226 35.5715 13.5226C35.7963 13.5226 36.0586 13.4137 36.2834 13.2321C36.5832 13.0505 36.6956 12.8689 36.6956 12.6146ZM39.9929 14.9028C39.9929 14.3943 39.4683 13.7406 38.4192 12.9778C38.4192 13.0505 38.4192 13.1231 38.4192 13.1957C38.4192 13.9585 38.1569 14.4669 37.6698 14.7575C37.8571 14.9391 38.1569 15.1207 38.5316 15.3386C38.9812 15.5929 39.2809 15.7018 39.4683 15.7018C39.8055 15.7018 39.9929 15.4476 39.9929 14.9028Z" fill="white"/>
</g>
<g opacity="0.99">
<path opacity="0.99" d="M30.9253 18.68H30.3258C29.5765 18.68 28.902 18.1715 28.2276 17.1909C27.5157 18.1715 26.8787 18.68 26.2792 18.68C25.9045 18.68 25.5298 18.5347 25.1177 18.2078C24.7805 17.9173 24.5182 17.5904 24.3308 17.1546C23.6564 18.1715 23.0194 18.68 22.4574 18.68C21.5956 18.68 20.9586 18.1715 20.4715 17.1546C19.7971 18.1715 19.0852 18.7163 18.2984 18.7163H17.6989V13.5952H18.2609C18.8229 13.5952 19.1976 13.3773 19.4224 12.9051C19.5348 12.5056 19.6472 12.1061 19.7596 11.7066C19.947 11.1981 20.2093 10.9438 20.509 10.9438C20.8837 10.9438 21.1085 11.1618 21.2584 11.6339C21.2959 11.8155 21.4083 12.2514 21.5581 12.9051C21.7455 13.3773 22.0827 13.5952 22.5698 13.5952C22.982 13.5952 23.2817 13.3773 23.469 12.9051C23.5065 12.6872 23.6189 12.2514 23.7688 11.6339C23.8812 11.1981 24.1435 10.9438 24.5182 10.9438C24.8929 10.9438 25.1177 11.1618 25.2301 11.6339C25.2675 11.8518 25.38 12.2877 25.4924 12.9051C25.6422 13.341 25.942 13.5952 26.3541 13.5952C26.8038 13.5952 27.1035 13.3773 27.2534 12.9414C27.3283 12.5419 27.4033 12.1061 27.5157 11.6702C27.6281 11.2344 27.8904 11.0165 28.265 11.0165C28.6023 11.0165 28.8271 11.2344 28.9395 11.6702C28.977 11.8155 29.0894 12.2514 29.2392 12.9051C29.4266 13.341 29.7638 13.5589 30.2134 13.5589H30.8129V18.68H30.9253Z" fill="white"/>
</g>
<g opacity="0.99">
<path opacity="0.99" d="M17.1744 18.7166H16.7247C15.5257 18.7166 14.589 18.0628 13.952 16.719C12.1535 18.4987 9.49327 19.3704 5.93373 19.3704C3.98536 19.3704 2.52408 18.9708 1.58736 18.1718C0.538233 17.3001 0.0136719 15.8836 0.0136719 13.9224C0.0136719 13.1596 0.126076 12.3606 0.350888 11.5253C0.61317 10.5446 0.950393 10.0361 1.36255 10.0361C1.81217 10.0361 2.07446 10.3993 2.11192 11.1621C2.14939 12.1427 2.3742 12.8328 2.78636 13.2323C3.49826 13.9587 4.88461 14.3582 6.98286 14.3582C9.19352 14.3582 11.0295 14.0676 12.4158 13.4502C13.3151 13.0507 14.1019 12.5059 14.7764 11.7795C15.3384 11.162 15.6756 10.8715 15.8255 10.8715C16.2002 10.8715 16.425 11.1257 16.425 11.6342C16.425 11.8158 16.35 12.0701 16.2376 12.4333C16.1252 12.7965 16.0128 13.0507 15.9004 13.2323C16.0503 13.4139 16.35 13.5229 16.7622 13.5229H17.2118V18.7166H17.1744Z" fill="white"/>
</g>
<g opacity="0.99">
<path opacity="0.99" d="M70.7547 2.95361H67.6073V6.00449H70.7547V2.95361Z" fill="white"/>
</g>
<g opacity="0.99">
<path opacity="0.99" d="M60.4883 6.04102H54.1561V9.09189H60.4883V6.04102Z" fill="white"/>
</g>
<g opacity="0.99">
<path opacity="0.99" d="M27.5157 6.04102H21.1835V9.09189H27.5157V6.04102Z" fill="white"/>
</g>
<g opacity="0.99">
<path opacity="0.99" d="M24.3309 2.95361H21.1835V6.00449H24.3309V2.95361Z" fill="white"/>
</g>
<g opacity="0.99">
<path opacity="0.99" d="M11.3292 6.04102H4.99701V9.09189H11.3292V6.04102Z" fill="white"/>
</g>
<path d="M4.17308 35.9688H3.3113C1.32546 35.9688 0.351267 34.9519 0.351267 32.9543C0.351267 32.1189 0.313803 30.993 0.238865 29.6128C0.163928 28.16 0.0889881 27.1794 0.0140506 26.7072C-0.0234181 26.4893 0.0140517 26.3077 0.126458 26.1987L2.41205 24.637C2.56192 24.528 2.67433 24.4917 2.74927 24.4917C2.82421 24.4917 2.86168 24.5643 2.86168 24.6733V31.3925C2.86168 32.1189 3.1989 32.5184 3.87333 32.5184H4.13561V35.9688H4.17308Z" fill="#CFDD4A"/>
<path d="M12.3413 33.1356C12.3413 33.6441 12.1539 34.2252 11.8167 34.8427C11.4046 35.6054 10.88 36.0049 10.243 36.0049C9.79341 36.0049 9.0815 35.678 8.03238 34.988C7.283 35.6417 6.60856 36.0049 5.9716 36.0049H4.54779V32.5182H5.48451C5.3721 32.3366 5.29716 32.1187 5.29716 31.8281C5.29716 31.138 5.55945 30.7022 6.04654 30.4843L5.59691 30.1937L6.64603 27.8692C6.75844 27.615 6.87085 27.4697 7.02072 27.4697C7.09566 27.4697 7.24553 27.5424 7.50782 27.6513C8.93163 28.414 10.0182 29.1404 10.7301 29.8305C11.8167 30.8838 12.3413 31.9734 12.3413 33.1356ZM8.51947 31.9008C8.51947 31.7192 8.44453 31.5739 8.25719 31.4286C8.06985 31.2833 7.8825 31.2107 7.69516 31.2107C7.50782 31.2107 7.283 31.2833 7.09566 31.3923C6.87085 31.5376 6.72097 31.6828 6.72097 31.8644C6.72097 32.0097 6.87085 32.155 7.13313 32.3003C7.39541 32.4456 7.58276 32.5182 7.73263 32.5182C7.8825 32.5182 8.06985 32.4456 8.25719 32.3366C8.40706 32.1913 8.51947 32.046 8.51947 31.9008ZM10.8425 33.4262C10.8425 33.0993 10.4678 32.6635 9.71847 32.155C9.71847 32.1913 9.71847 32.264 9.71847 32.3003C9.71847 32.8088 9.53113 33.1356 9.19391 33.3536C9.34378 33.4625 9.53112 33.6078 9.83087 33.7531C10.1306 33.8984 10.3554 34.0073 10.5053 34.0073C10.6927 33.971 10.8425 33.7894 10.8425 33.4262Z" fill="#CFDD4A"/>
<path d="M19.0482 32.3004C19.0482 33.3537 18.7859 34.189 18.2988 34.8791C17.7368 35.6055 16.9125 36.005 15.8633 36.005C13.9899 36.005 13.0532 35.1697 13.0532 33.4989C13.0532 32.8815 13.2405 32.0098 13.6527 30.8476C14.1023 29.4674 14.5894 28.7773 15.039 28.7773C15.8633 28.7773 16.6876 29.0679 17.512 29.6127C18.5611 30.2665 19.0482 31.1745 19.0482 32.3004ZM17.4745 32.5183C17.4745 32.3004 17.1747 32.0825 16.5752 31.8282C16.0507 31.6103 15.6385 31.5013 15.3388 31.5013C15.1889 31.5013 15.039 31.6103 14.9266 31.8282C14.8517 32.0098 14.8142 32.1914 14.8142 32.373C14.8142 32.8089 15.3013 33.0268 16.238 33.0268C17.0623 32.9905 17.4745 32.8089 17.4745 32.5183Z" fill="#CFDD4A"/>
<path d="M28.3404 36.005H27.666C26.6543 36.005 25.83 35.3876 25.193 34.1164C24.7434 34.8791 24.3312 35.4239 23.9565 35.7144C23.5069 36.0776 22.9074 36.2592 22.1955 36.2592C20.5843 36.2592 19.7975 35.3512 19.7975 33.4989C19.7975 33.0994 19.8724 32.6999 19.9848 32.2277C20.1347 31.6103 20.3595 31.3197 20.6218 31.3197C20.9216 31.3197 21.1089 31.465 21.1838 31.7556C21.3337 32.2277 21.4461 32.482 21.4836 32.5183C21.7084 32.8088 22.0831 32.9541 22.6451 32.9541C23.0198 32.9541 23.3945 32.9178 23.7692 32.8088C24.2188 32.6636 24.4436 32.5183 24.4436 32.3367C24.4436 32.3004 24.4436 32.264 24.4062 32.2277L23.0948 29.1768L24.8558 27.4698C24.9307 27.3972 25.0057 27.3608 25.0432 27.3608C25.0806 27.3608 25.1181 27.4335 25.1556 27.5424L26.6543 31.5013C26.9166 32.1914 27.2913 32.5546 27.8159 32.5546H28.4154V36.005H28.3404Z" fill="#CFDD4A"/>
<path d="M35.9466 32.0099C35.9466 32.4458 35.8717 33.0269 35.7218 33.717C35.5719 34.4434 35.4221 34.9882 35.2347 35.3514C35.0099 35.7872 34.8225 36.0415 34.5977 36.0415C34.3729 36.0415 34.223 35.7509 34.0357 35.2061C33.8109 34.4434 33.3613 31.792 32.6494 27.252L35.0474 24.7459C35.1972 24.6007 35.3096 24.4917 35.3471 24.4917C35.3846 24.4917 35.4221 24.5643 35.4595 24.7096C35.6843 25.7266 35.8342 26.9251 35.8717 28.3416C35.9466 28.7775 35.9466 30.0123 35.9466 32.0099Z" fill="#CFDD4A"/>
<path d="M32.7243 31.9733C32.7243 33.3897 32.4995 34.4067 32.0873 34.9878C31.6003 35.6779 30.701 36.0048 29.3896 36.0048H28.7901V32.5181H30.5886C30.8884 32.5181 31.0382 32.4454 31.0382 32.2638C31.0382 32.1912 31.0008 32.0822 30.8883 31.9733C30.5511 31.5737 30.139 31.1379 29.6144 30.7021C29.5395 30.6294 29.5395 30.5568 29.6144 30.4115L31.0757 28.3413C31.1506 28.2323 31.2256 28.1597 31.263 28.1597C31.3005 28.1597 31.3754 28.196 31.4504 28.3049C32.3122 29.3219 32.7243 30.5205 32.7243 31.9733ZM30.2888 38.3656C30.3638 38.4382 30.3638 38.5109 30.2888 38.5835L29.2397 39.6005C29.1648 39.6731 29.0899 39.6731 29.0149 39.6005L28.0407 38.6561L27.0665 39.6005C26.9916 39.6731 26.9167 39.6731 26.8417 39.6005L25.7926 38.6198C25.7177 38.5472 25.7177 38.4382 25.8301 38.3293L26.8043 37.3849C26.8792 37.3123 26.9916 37.3123 27.0665 37.3849L28.0782 38.3293L29.0149 37.3849C29.0899 37.3123 29.2023 37.276 29.2772 37.3849L30.2888 38.3656Z" fill="#CFDD4A"/>
<path d="M44.1524 32.3001C44.1524 33.3534 43.8901 34.225 43.403 34.8788C42.841 35.6052 42.0167 36.0047 40.9676 36.0047C39.0941 36.0047 38.1574 35.1694 38.1574 33.4986C38.1574 32.8812 38.3448 32.0095 38.7569 30.811C39.2065 29.4308 39.6936 28.7407 40.1807 28.7407C41.005 28.7407 41.8293 29.0313 42.6536 29.5761C43.6278 30.2662 44.1524 31.1742 44.1524 32.3001ZM42.5412 32.4817C42.5412 32.2638 42.2415 32.0458 41.642 31.7916C41.1174 31.5737 40.7053 31.4647 40.4055 31.4647C40.2557 31.4647 40.1058 31.5737 39.9934 31.7916C39.9184 31.9732 39.881 32.1548 39.881 32.3364C39.881 32.7722 40.3681 32.9902 41.3048 32.9902C42.1666 32.9538 42.5412 32.8086 42.5412 32.4817Z" fill="#CFDD4A"/>
<path d="M48.6861 35.9685H47.8243C45.8384 35.9685 44.8642 34.9516 44.8642 32.954C44.8642 32.1186 44.8267 30.9927 44.7518 29.5762C44.6769 28.1234 44.6019 27.1428 44.527 26.6706C44.4895 26.4527 44.527 26.2711 44.6394 26.1621L46.925 24.6004C47.0749 24.4914 47.1873 24.4551 47.2622 24.4551C47.3372 24.4551 47.3746 24.5277 47.3746 24.6367V31.3922C47.3746 32.1549 47.7119 32.5181 48.3863 32.5181H48.6486V35.9685H48.6861Z" fill="#CFDD4A"/>
<path d="M56.0675 26.2348L55.9177 28.3414C55.9177 28.4504 55.8802 28.523 55.8802 28.523C55.8427 28.5593 55.8053 28.5956 55.7303 28.632L52.6204 29.4673C53.4447 30.4116 53.8194 31.356 53.8194 32.3729C53.8194 33.862 53.3323 34.9153 52.3207 35.4964C51.7587 35.8233 51.0842 36.0049 50.3348 36.0049H49.0609V32.5182H49.8103C50.5597 32.5182 51.1217 32.4819 51.5338 32.4092C51.7212 32.3729 51.7961 32.3003 51.7961 32.1913C51.7961 32.1187 51.7587 32.046 51.6837 31.9734C51.384 31.6102 50.7095 30.9564 49.6229 30.0121L49.9976 28.0872C49.9976 28.0508 50.0351 28.0145 50.0726 27.9782L55.9926 26.1259C56.0675 26.0896 56.105 26.0896 56.105 26.1259C56.0676 26.0896 56.0675 26.1259 56.0675 26.2348ZM56.2174 24.8184L56.1425 25.5448L50.0726 27.4697L50.2224 26.6344L56.2174 24.8184Z" fill="#CFDD4A"/>
<path d="M57.8285 35.3512C57.8285 37.2399 57.3039 38.729 56.2923 39.8186C56.1799 39.9275 55.9925 40.0002 55.8052 40.0002H52.0958C51.6461 40.0002 51.4213 39.8186 51.4213 39.4917C51.4213 39.3101 51.4963 39.1648 51.6836 39.0922C52.3955 38.7653 53.2198 38.2568 54.2689 37.6031C55.5804 36.7314 56.2548 36.1139 56.2548 35.7144C56.2548 35.4239 55.6553 34.7338 54.4938 33.6442L55.7677 31.1018C55.8426 30.9565 55.955 30.9565 56.0675 31.0655C56.7044 31.6103 57.1541 32.1914 57.4163 32.7725C57.6786 33.3899 57.8285 34.2616 57.8285 35.3512Z" fill="#CFDD4A"/>
<path d="M62.2872 35.9685H61.4254C59.4395 35.9685 58.4653 34.9516 58.4653 32.954C58.4653 32.1186 58.4279 30.9927 58.3529 29.5762C58.278 28.1234 58.2031 27.1428 58.1281 26.6706C58.0907 26.4527 58.1281 26.2711 58.2405 26.1621L60.5261 24.6004C60.676 24.4914 60.7884 24.4551 60.8633 24.4551C60.9383 24.4551 60.9758 24.5277 60.9758 24.6367V31.3922C60.9758 32.1549 61.313 32.5181 61.9874 32.5181H62.2497V35.9685H62.2872Z" fill="#CFDD4A"/>
<path d="M71.0925 36.005H70.4555C69.9684 36.005 69.4063 35.8234 68.8068 35.4239C68.2823 35.097 67.8326 34.6975 67.4954 34.2616C67.1582 34.9517 66.6336 35.4239 65.9217 35.6781C65.3971 35.896 64.6477 35.9687 63.6361 35.9687H62.6619V32.4819H63.6735C64.4979 32.4819 65.0974 32.4456 65.3971 32.3367C65.547 32.3003 65.5845 32.2277 65.5845 32.1551C65.5845 32.0824 65.547 32.0098 65.4346 31.9008C65.2098 31.6466 64.4229 30.8112 62.9991 29.3947L63.4487 26.925C63.4862 26.816 63.5237 26.7434 63.6361 26.7071L69.7436 24.7458C69.8185 24.7095 69.856 24.7095 69.856 24.7095C69.8934 24.7095 69.8934 24.7821 69.856 24.8911L69.5937 27.4335C69.5937 27.5424 69.5562 27.5788 69.5562 27.6151C69.5188 27.6514 69.4813 27.6877 69.4063 27.724L65.8093 28.9226C67.2331 30.5207 68.02 31.3923 68.2073 31.5376C68.8818 32.1551 69.5562 32.4819 70.2307 32.4819H71.055V36.005H71.0925Z" fill="#CFDD4A"/>
<path d="M79.1857 33.1356C79.1857 33.6441 78.9984 34.2252 78.6612 34.8427C78.249 35.6054 77.7245 36.0049 77.0875 36.0049C76.6379 36.0049 75.9259 35.678 74.8768 34.988C74.1274 35.6417 73.453 36.0049 72.816 36.0049H71.3922V32.5182H72.3289C72.2165 32.3366 72.1416 32.1187 72.1416 31.8281C72.1416 31.138 72.4039 30.7022 72.891 30.4843L72.4413 30.1937L73.4905 27.8692C73.6029 27.615 73.7153 27.4697 73.8652 27.4697C73.9401 27.4697 74.09 27.5424 74.3523 27.6513C75.7761 28.414 76.8627 29.1404 77.5746 29.8305C78.6612 30.8838 79.1857 31.9734 79.1857 33.1356ZM75.3639 31.9008C75.3639 31.7192 75.289 31.5739 75.1016 31.4286C74.9143 31.2833 74.7269 31.2107 74.5396 31.2107C74.3523 31.2107 74.1274 31.2833 73.9401 31.3923C73.7153 31.5376 73.5654 31.6828 73.5654 31.8644C73.5654 32.0097 73.7153 32.155 73.9776 32.3003C74.2398 32.4456 74.4272 32.5182 74.5771 32.5182C74.7644 32.5182 74.9143 32.4456 75.1016 32.3366C75.2515 32.1913 75.3639 32.046 75.3639 31.9008ZM77.687 33.4262C77.687 33.0993 77.3123 32.6635 76.5629 32.155C76.5629 32.1913 76.5629 32.264 76.5629 32.3003C76.5629 32.8088 76.3756 33.1356 76.0384 33.3536C76.1882 33.4625 76.3756 33.6078 76.6753 33.7531C76.9751 33.9347 77.1999 34.0073 77.3498 34.0073C77.5371 33.971 77.687 33.7894 77.687 33.4262Z" fill="#CFDD4A"/>
<path d="M82.2207 32.0096C82.2207 32.4455 82.1458 33.0266 81.9959 33.7167C81.846 34.4431 81.6962 34.9879 81.5088 35.3511C81.284 35.7869 81.0967 36.0412 80.8718 36.0412C80.647 36.0412 80.4972 35.7506 80.3098 35.2058C80.085 34.4431 79.6354 31.7917 78.9235 27.2154L81.3215 24.7093C81.4713 24.564 81.5838 24.4551 81.6212 24.4551C81.6587 24.4551 81.6962 24.5277 81.7336 24.673C81.9584 25.69 82.1083 26.8885 82.1458 28.305C82.2207 28.7408 82.2207 29.9757 82.2207 32.0096Z" fill="#CFDD4A"/>
<path d="M86.08 35.3512C86.08 37.2399 85.5554 38.729 84.5438 39.8186C84.4314 39.9275 84.244 40.0002 84.0567 40.0002H80.3473C79.8977 40.0002 79.6729 39.8186 79.6729 39.4917C79.6729 39.3101 79.7478 39.1648 79.9351 39.0922C80.647 38.7653 81.4714 38.2568 82.5205 37.6031C83.8319 36.7314 84.5063 36.1139 84.5063 35.7144C84.5063 35.4239 83.9068 34.7338 82.7453 33.6442L84.0192 31.1018C84.0942 30.9565 84.2066 30.9565 84.319 31.0655C84.9559 31.6103 85.4056 32.1914 85.6678 32.7725C85.9676 33.3899 86.08 34.2616 86.08 35.3512Z" fill="#CFDD4A"/>
</svg>
